<?xml version="1.0" encoding="UTF-8" standalone="no"?>
<!-- Created with Inkscape (http://www.inkscape.org/) -->

<svg
   width="144mm"
   height="144mm"
   viewBox="0 0 144 144"
   version="1.1"
   id="svg5"
   inkscape:version="1.1.2 (0a00cf5339, 2022-02-04)"
   sodipodi:docname="mqtt_vault.svg"
   xmlns:inkscape="http://www.inkscape.org/namespaces/inkscape"
   xmlns:sodipodi="http://sodipodi.sourceforge.net/DTD/sodipodi-0.dtd"
   xmlns="http://www.w3.org/2000/svg"
   xmlns:svg="http://www.w3.org/2000/svg">
  <sodipodi:namedview
     id="namedview7"
     pagecolor="#505050"
     bordercolor="#eeeeee"
     borderopacity="1"
     inkscape:pageshadow="0"
     inkscape:pageopacity="0"
     inkscape:pagecheckerboard="0"
     inkscape:document-units="mm"
     showgrid="false"
     width="209mm"
     inkscape:zoom="1"
     inkscape:cx="-129"
     inkscape:cy="297"
     inkscape:window-width="3440"
     inkscape:window-height="1369"
     inkscape:window-x="1080"
     inkscape:window-y="0"
     inkscape:window-maximized="1"
     inkscape:current-layer="layer1" />
  <defs
     id="defs2" />
  <g
     inkscape:label="Layer 1"
     inkscape:groupmode="layer"
     id="layer1"
     style="display:inline">
    <path
       style="fill:#8f857f;fill-opacity:1;stroke:#8e7f7f;stroke-width:0.310753;stroke-opacity:1"
       d="M 63.292519,128.19348 C 38.364324,125.60176 17.721925,108.60679 10.50807,84.735858 8.701195,78.756831 8.071666,74.170488 8.0854035,67.085848 8.0975875,60.802391 8.4394123,57.881444 9.7997688,52.436327 12.503587,41.613713 17.773947,32.332823 25.795574,24.268368 31.007508,19.028606 35.314882,15.874564 41.589563,12.703343 48.453784,9.234168 55.290299,7.2194552 62.885148,6.4275589 66.942642,6.0044942 75.541492,6.2565558 79.20342,6.9059031 c 12.894508,2.2865039 24.03434,8.0542589 33.13717,17.1570859 9.3291,9.329098 15.08896,20.682348 17.30083,34.101625 0.62846,3.812845 0.62694,14.545784 -0.003,18.283079 -2.17705,12.924454 -7.70509,24.076817 -16.43826,33.162867 -9.55401,9.94004 -21.792496,16.21155 -35.611763,18.24896 -3.034672,0.44741 -11.33921,0.64141 -14.296289,0.33396 z m 12.535299,-16.01039 c 2.109918,-0.57693 3.405569,-1.41895 4.018029,-2.61122 0.43275,-0.84242 0.55422,-1.64715 0.716738,-4.74823 0.222602,-4.24762 0.662098,-6.058015 2.020228,-8.321825 2.137834,-3.563463 6.845811,-7.25244 11.108431,-8.704114 2.7516,-0.93708 5.304991,-0.906777 9.069016,0.107633 3.06014,0.824717 5.12908,0.963141 6.19062,0.4142 0.92774,-0.479756 2.31072,-2.064478 3.01562,-3.455541 1.73445,-3.422758 3.44014,-10.031153 3.17944,-12.318145 -0.16787,-1.472642 -0.41618,-2.042448 -1.31177,-3.010101 -0.79549,-0.859502 -1.38125,-1.16414 -4.20112,-2.184895 -2.83256,-1.025342 -4.05364,-1.635979 -5.64078,-2.820842 -3.47432,-2.593705 -6.594084,-9.718384 -6.581143,-15.029523 0.0072,-2.979426 0.830585,-5.230265 3.310873,-9.051364 2.15755,-3.323911 2.41912,-4.596429 1.37536,-6.690982 -1.61634,-3.243564 -9.621895,-8.906764 -13.227499,-9.357257 -2.234726,-0.279209 -3.35325,0.438502 -6.051621,3.883091 -2.8603,3.651293 -5.211337,5.335985 -8.79878,6.304981 -1.208953,0.326546 -2.476754,0.420455 -5.545632,0.410774 -3.648596,-0.01151 -4.139856,-0.06604 -5.926212,-0.657812 -3.289501,-1.089729 -5.171548,-2.571994 -8.479501,-6.678287 -1.826461,-2.267257 -2.66985,-2.772879 -4.624665,-2.772548 -1.383845,2.33e-4 -1.844913,0.13067 -3.634383,1.028179 -3.923033,1.967595 -8.976955,6.240854 -10.082895,8.525417 -0.602382,1.244354 -0.676656,2.759906 -0.192096,3.919625 0.183727,0.439719 1.108951,1.950204 2.056054,3.356631 2.255131,3.348823 2.940328,5.151276 3.095934,8.144044 0.14273,2.745058 -0.311607,5.332153 -1.486183,8.46265 -1.651442,4.401445 -3.959981,7.145301 -7.416831,8.815396 -1.104453,0.533588 -2.442102,1.104712 -2.972555,1.269158 -1.833901,0.568542 -3.775773,1.756111 -4.390527,2.685069 -1.178169,1.780333 -1.001683,4.757406 0.568833,9.595455 1.090512,3.359381 2.3285,5.872745 3.544668,7.196402 1.852827,2.016588 3.098281,2.162014 7.628747,0.890786 3.820729,-1.072081 5.609746,-1.23849 7.959047,-0.740341 4.6462,0.985189 10.402181,5.02004 12.76626,8.948947 1.312058,2.180529 1.719239,3.730419 2.057516,7.831769 0.16954,2.0555 0.437073,4.06278 0.594522,4.46061 0.64317,1.62517 2.235602,2.64221 4.948547,3.16047 2.326925,0.44453 9.354917,0.28447 11.33971,-0.25826 z"
       id="path2989" />
    <path
       sodipodi:type="star"
       style="fill:#8f857f;fill-opacity:1;stroke:#8e7f7f;stroke-width:1.28882;stroke-opacity:0"
       id="path4829"
       inkscape:flatsided="true"
       sodipodi:sides="3"
       sodipodi:cx="251.42397"
       sodipodi:cy="203.74294"
       sodipodi:r1="39.935497"
       sodipodi:r2="19.967749"
       sodipodi:arg1="1.5707963"
       sodipodi:arg2="2.6179939"
       inkscape:rounded="0.2"
       inkscape:randomized="0"
       d="m 251.42397,243.67843 c -13.83407,0 -41.50219,-47.92259 -34.58516,-59.90324 6.91703,-11.98065 62.25328,-11.98065 69.17031,0 6.91703,11.98064 -20.75109,59.90324 -34.58515,59.90324 z"
       transform="matrix(0.6369617,-0.51491923,0.08697352,0.10758735,-65.968338,227.74356)"
       inkscape:transform-center-y="-3.8178536"
       inkscape:transform-center-x="3.0845198" />
    <path
       sodipodi:type="star"
       style="fill:#8f857f;fill-opacity:1;stroke:#8e7f7f;stroke-width:1.28882;stroke-opacity:0"
       id="path4829-3"
       inkscape:flatsided="true"
       sodipodi:sides="3"
       sodipodi:cx="251.42397"
       sodipodi:cy="203.74294"
       sodipodi:r1="39.935497"
       sodipodi:r2="19.967749"
       sodipodi:arg1="1.5707963"
       sodipodi:arg2="2.6179939"
       inkscape:rounded="0.2"
       inkscape:randomized="0"
       transform="matrix(0.5173239,-0.38585476,0.0680322,0.08370814,-23.59776,208.66148)"
       inkscape:transform-center-y="-2.9689333"
       inkscape:transform-center-x="2.412949"
       d="m 251.42397,243.67843 c -13.83407,0 -41.50219,-47.92259 -34.58516,-59.90324 6.91703,-11.98065 62.25328,-11.98065 69.17031,0 6.91703,11.98064 -20.75109,59.90324 -34.58515,59.90324 z" />
    <path
       sodipodi:type="star"
       style="fill:#8f857f;fill-opacity:1;stroke:#8e7f7f;stroke-width:1.28882;stroke-opacity:0"
       id="path5139"
       inkscape:flatsided="true"
       sodipodi:sides="3"
       sodipodi:cx="234.23605"
       sodipodi:cy="207.5573"
       sodipodi:r1="149.00745"
       sodipodi:r2="74.503716"
       sodipodi:arg1="1.5627416"
       sodipodi:arg2="2.6099392"
       inkscape:rounded="0.22"
       inkscape:randomized="0"
       d="M 235.43625,356.55991 C 178.65863,357.01725 76.603161,183.49493 104.59591,134.0954 132.58865,84.695864 333.89112,83.074393 362.676,132.01659 391.46088,180.95878 292.21388,356.10257 235.43625,356.55991 Z"
       transform="matrix(0.06150381,-0.06554366,0.14837803,0.16563709,64.671245,98.19766)"
       inkscape:transform-center-x="-1.5394441"
       inkscape:transform-center-y="1.95355" />
    <path
       style="fill:#3ed52d;fill-opacity:0.3355476;stroke:none;stroke-width:0.455666;stroke-opacity:0.997222"
       d="m 31.428449,235.69667 c 0.09775,-0.90438 0.274375,-3.07622 0.392508,-4.82631 1.032356,-15.29397 6.232772,-37.81682 13.061402,-56.56854 5.529248,-15.18356 14.494091,-32.83241 23.795631,-46.84582 1.484319,-2.23623 2.794974,-4.14542 2.912573,-4.24264 0.117595,-0.0972 1.236008,-1.60867 2.485363,-3.35876 10.47158,-14.66855 28.173564,-33.337197 43.480574,-45.854939 6.52687,-5.337535 16.60161,-12.48933 22.27387,-15.811645 1.4584,-0.854208 3.20849,-1.903007 3.88908,-2.330664 7.25391,-4.55808 24.94026,-13.028633 36.94633,-17.694769 19.04023,-7.399945 43.93417,-12.78218 64.16994,-13.873963 10.43685,-0.563101 29.72911,-0.171299 42.04746,0.85393 21.5352,1.792327 46.78102,8.717185 70.38252,19.305722 13.93498,6.251768 31.15972,16.701573 44.37095,26.918735 7.64103,5.909345 12.63649,10.301241 20.96904,18.435554 27.93118,27.266749 47.75018,59.740669 59.12243,96.873629 3.63369,11.8647 7.07217,27.27074 8.31622,37.26034 0.23218,1.86444 0.21945,1.90139 -0.59818,1.73576 -2.44136,-0.49457 -120.02321,-31.495 -120.24098,-31.70151 -0.51593,-0.48927 -0.69963,-7.71976 -0.29328,-11.54379 0.47306,-4.45185 1.02894,-6.89181 2.53573,-11.13037 1.71478,-4.8236 3.99894,-9.11971 9.68086,-18.208 8.00269,-12.80037 8.9184,-16.84242 5.60755,-24.75166 -1.77116,-4.23106 -3.52942,-6.78318 -7.4756,-10.85088 -7.26676,-7.49056 -20.77976,-17.20338 -31.13198,-22.376934 -8.00077,-3.998406 -13.89081,-5.200339 -18.98436,-3.873987 -4.17978,1.088411 -7.69041,3.979371 -12.64308,10.411441 -1.57216,2.04177 -4.31047,5.4624 -6.08514,7.6014 -9.83177,11.85018 -18.06963,17.45894 -30.08696,20.48477 -6.99699,1.76176 -9.37869,1.97354 -21.88139,1.94566 -14.68833,-0.0327 -16.77738,-0.33135 -25.2627,-3.61097 -10.10394,-3.90523 -17.30915,-9.96614 -28.80737,-24.23231 -3.25453,-4.037985 -6.60109,-7.225371 -8.70423,-8.290224 -4.1594,-2.105969 -9.61104,-2.612693 -14.54172,-1.351635 -4.68656,1.19862 -12.55126,5.277361 -19.73439,10.234529 -5.2094,3.59507 -6.94708,4.92687 -12.72035,9.7492 -3.13971,2.62256 -10.96617,10.8715 -12.43115,13.1022 -2.77048,4.21858 -3.28349,5.98192 -3.2915,11.31371 -0.009,5.75861 0.33465,6.56148 7.40776,17.32411 4.75723,7.23873 5.86811,9.07667 7.76738,12.85108 3.84555,7.64223 4.91898,12.4036 4.94299,21.9254 l 0.0164,6.49221 -45.43161,14.99052 c -24.987389,8.24479 -52.400914,17.27973 -60.918948,20.07764 l -15.487334,5.08712 z"
       id="path10390"
       transform="scale(0.26458333)" />
  </g>
</svg>
